<?xml version="1.0" encoding="UTF-8" standalone="no"?>
<svg xmlns="http://www.w3.org/2000/svg" height="652.64" width="898.94" version="1.1" viewBox="120 -20 377.12155 362.56219">
 <g fill="#014971">
  <path d="m270.77 158.3 9.4566 4.8292-1.0213 1.9999-3.4019-1.7372-4.2185 8.2608-2.6459-1.3512 4.2185-8.2608-3.4088-1.7407 1.0213-1.9999z"/>
  <path d="m280.64 168.41q-0.83308-0.38634-1.5533 0.0112-0.71 0.39377-1.2327 1.5209-0.52269 1.1271-0.36785 1.9304 0.16508 0.79958 0.99816 1.1859 0.81907 0.37985 1.5291-0.0139 0.71324-0.40077 1.2359-1.5279 0.5227-1.1271 0.36461-1.9234-0.15484-0.80334-0.97391-1.1832zm0.83111-1.7922q2.0232 0.93825 2.6508 2.5563 0.63465 1.6213-0.2614 3.5535-0.89604 1.9322-2.5436 2.4951-1.6406 0.56616-3.6637-0.37208-2.0302-0.9415-2.6718-2.566-0.63465-1.6213 0.26139-3.5535 0.89605-1.9322 2.5436-2.4951 1.6546-0.55967 3.6848 0.38182z"/>
  <path d="m290.68 168.23-0.95384 2.261 2.6236 1.1068-0.76788 1.8202-2.6236-1.1068-1.4248 3.3772q-0.23396 0.55458-0.0975 0.84664 0.13943 0.28496 0.79354 0.56091l1.3082 0.55191-0.76787 1.8202-2.1828-0.92085q-1.5073-0.6359-1.8762-1.5285-0.35872-0.89674 0.27718-2.4041l1.4248-3.3772-1.2656-0.53391 0.76787-1.8202 1.2656 0.53391 0.95385-2.261 2.5454 1.0738z"/>
  <path d="m295.31 177.86q-0.80586-0.31236-1.322-0.19791-0.50891 0.11724-0.71529 0.64969-0.18965 0.48927 0.0254 0.89538 0.225 0.40171 0.80781 0.62761 0.72672 0.28168 1.424-0.0439 0.70006-0.33281 1.004-1.1171l0.11435-0.295-1.3383-0.51874zm4.3123 0.55419-1.7821 4.5977-2.5975-1.0068 0.46296-1.1944q-0.80252 0.53311-1.5812 0.62028-0.77586 0.08-1.704-0.27979-1.252-0.48528-1.7546-1.516-0.49261-1.0351-0.0408-2.2007 0.54942-1.4174 1.7774-1.7029 1.2351-0.28266 3.3217 0.52612l1.5182 0.58846 0.0781-0.20146q0.23706-0.61159-0.13625-1.0791-0.37052-0.47466-1.3922-0.87069-0.82745-0.32072-1.6039-0.43133-0.77647-0.11062-1.5164-0.0167l0.76137-1.9643q0.90554 0.11926 1.7792 0.34205 0.87648 0.21558 1.7111 0.5391 2.1802 0.84504 2.8096 2.0822 0.63947 1.2327-0.11074 3.1682z"/>
  <path d="m304.16 172.52 2.5972 0.94153-4.0922 11.288-2.5972-0.94153 4.0922-11.288z"/>
 </g>
 <g font-family="Arial,sans-serif" font-weight="700">
  <g font-size="16px">
   <text style="text-anchor:middle" y="331.22784" x="307.71301">
    <tspan y="331.22784" x="307.71301">Time</tspan>
   </text>
   <text style="text-anchor:middle" y="314.28845" x="513.11273">
    <tspan y="314.28845" x="513.11273">present</tspan>
   </text>
   <text style="text-anchor:middle" y="313.4888" x="115.96945">
    <tspan y="313.4888" x="115.96945">4.5 Ga</tspan>
   </text>
   <text style="text-anchor:middle" y="292.81174" x="95.69458">0</text>
   <text style="text-anchor:middle" y="13.950813" x="84.678291">120</text>
   <text style="text-anchor:middle" transform="rotate(-90)" y="91.185867" x="-151.83141">
    <tspan y="91.185867" x="-151.83141">Heat Flow (TW)</tspan>
   </text>
  </g>
 </g>
 <g fill="none">
  <g stroke-width="3.8887" stroke-linecap="round">
   <path d="m116.93 173.14c46.913 28.524 86.062 48.103 132.29 64.546 27.36 9.7319 51.515 13.987 84.834 19.823 33.319 5.8354 85.23 10.581 115.04 13.547 29.814 2.9658 63.716 5.1782 63.716 5.1782" stroke="#e89b04"/>
   <path d="m116.85 214.6s27.337 21.821 51.192 32.28 35.098 15.897 92.45 24.973c57.352 9.0766 252.31 12.649 252.31 12.649" stroke="#d70d18"/>
   <path d="m117.03 248.93s62.251 4.2825 93.395 6.1197c47.842 2.8222 95.698 5.4436 143.58 7.532 54.117 2.3604 158.81 5.649 158.81 5.649" stroke="#368106"/>
   <path d="m117.03 260.54s183.96 3.1336 275.95 3.9944c37.926 0.3549 75.862 1.2229 113.78 0.48249 2.0184-0.0394 6.0506-0.26207 6.0506-0.26207" stroke="#2f0385"/>
  </g>
  <g stroke="#000" stroke-width="2">
   <path d="m115.92 298.19v-289.12"/>
   <path d="m513.74 298.19v-290.74"/>
   <path d="m103.84 8.4594 410.9-0.02"/>
  </g>
  <path d="m116.78 42.179c35.932 61.222 97.302 112.46 153.12 139.8 41.638 20.394 109.14 35.239 149.94 43.664 40.796 8.4251 93.057 11.592 93.057 11.592" stroke="#014971" stroke-linecap="round" stroke-dasharray="10, 10, 1, 8, 1" stroke-width="3.8887"/>
  <path d="m103.84 287.1 408.98-0.02" stroke="#000" stroke-width="2"/>
 </g>
 <g fill="#e89b04">
  <path d="m166.38 175.11-3.8636 1.9912 2.1333 1.1683 1.7303-3.1595zm0.55409-1.7797 2.1636 1.1849-2.608 4.762 1.0768 0.5897-0.77242 1.4104-1.0768-0.5897-0.75305 1.375-1.8401-1.0078 0.75304-1.375-3.3466-1.8328 0.91361-1.6682 5.4898-2.8486z"/>
  <path d="m173.18 181.59q0.76004-1.4236 0.80001-2.1472 0.0478-0.72586-0.58271-1.0624-0.63047-0.33659-1.2121 0.10426-0.57892 0.43576-1.339 1.8594-0.76818 1.4389-0.81358 2.1726-0.0454 0.73366 0.58508 1.0702 0.62539 0.33388 1.2097-0.11206 0.58435-0.44593 1.3525-1.8848zm1.9494 1.0603q-1.0071 1.8863-2.3689 2.4791-1.3591 0.58766-2.8539-0.21038-1.4999-0.80075-1.7678-2.257-0.2652-1.4614 0.74186-3.3477 1.0098-1.8914 2.3689-2.4791 1.3618-0.59275 2.8617 0.208 1.4948 0.79805 1.76 2.2594 0.26791 1.4563-0.74185 3.3477z"/>
  <path d="m177.06 182.65 2.6405 1.3617-1.9276 3.7379 5.7341-1.7749 3.0658 1.581-7.4318 2.306 2.6588 8.1956-3.3058-1.7048-1.9943-6.1337-2.0797 4.0328-2.6405-1.3617 5.2806-10.24z"/>
 </g>
 <g fill="#d70d18">
  <path d="m130.41 202.4 3.0106 2.2969-0.98939 1.2968-4.9718-3.7932 0.98939-1.2968 4.179-0.29871q0.56525-0.0472 0.94588-0.21354 0.38063-0.16632 0.61837-0.47792 0.36709-0.48114 0.2655-1.0226-0.097-0.53799-0.63314-0.94704-0.41241-0.31464-1.0391-0.51001-0.62316-0.19996-1.4479-0.27823l1.1467-1.503q0.74603 0.25746 1.4049 0.60065 0.66236 0.33861 1.2214 0.76513 1.228 0.93695 1.4937 1.9951 0.27022 1.0616-0.46745 2.0285-0.42652 0.55903-1.0858 0.8245-0.65577 0.26089-2.2002 0.36575l-2.4407 0.16779z"/>
  <path d="m140.11 205.84q0.57311 0.69247 0.60938 1.409 0.0443 0.71521-0.45932 1.4108-0.75038 1.0364-1.9361 1.0033-1.1824-0.0378-2.7043-1.1397-0.53687-0.38872-1.0142-0.86951-0.47603-0.47275-0.8785-1.0274l1.0039-1.3865q0.32167 0.61715 0.72189 1.1062 0.40826 0.48772 0.88912 0.83587 0.71427 0.51716 1.2716 0.54352 0.56196 0.0297 0.89659-0.43244 0.34477-0.47619 0.12839-1.0029-0.20834-0.52798-0.96931-1.0789l-0.71894-0.52053 0.83827-1.1578 0.75629 0.54758q0.67693 0.49012 1.1605 0.52002 0.48695 0.0252 0.8013-0.40893 0.29069-0.40149 0.12743-0.85413-0.16326-0.45265-0.75149-0.87854-0.43417-0.31435-0.94866-0.53743-0.51449-0.22307-1.0919-0.34939l0.95319-1.3165q0.64037 0.23595 1.2173 0.53982 0.57695 0.30388 1.0811 0.66893 1.3585 0.98362 1.7063 1.9185 0.35582 0.93362-0.29316 1.83-0.4428 0.61157-1.0488 0.7705-0.60268 0.15425-1.3478-0.14334z"/>
  <path d="m145.19 204.6 4.5412 3.1307-0.9258 1.3429-3.0844-2.1264-0.75569 1.0962q0.24805 0.087 0.47647 0.20247 0.23644 0.11399 0.46421 0.27102 1.2955 0.89309 1.5686 2.0404 0.27637 1.1426-0.52185 2.3005-0.79168 1.1484-2.0276 1.2554-1.2312 0.11032-2.6263-0.85147-0.60266-0.41547-1.114-0.94303-0.50991-0.51954-0.93001-1.1592l0.99124-1.4378q0.34993 0.73128 0.75266 1.254 0.40749 0.52594 0.86778 0.84327 0.66434 0.45799 1.2664 0.39703 0.6101-0.0624 0.99285-0.61764 0.38603-0.55995 0.22411-1.1476-0.15716-0.58439-0.8215-1.0424-0.39386-0.27153-0.91189-0.47464-0.51476-0.20786-1.1745-0.34764l2.748-3.986z"/>
  <path d="m149.58 211.78 2.5005 1.6044-3.7298 5.8128q-0.77096 1.2015-0.71467 1.9712 0.067 0.7673 0.95674 1.3382 0.89628 0.5751 1.6152 0.31205 0.72957-0.26537 1.5005-1.4669l3.7298-5.8128 2.5005 1.6044-3.7298 5.8128q-1.3211 2.0588-2.9997 2.4029-1.6786 0.34407-3.7959-1.0145-2.1108-1.3544-2.4975-3.0237-0.38672-1.6693 0.93434-3.7281l3.7298-5.8128z"/>
 </g>
 <g fill="#368106">
  <path d="m181.46 235.25 3.7788 0.24469-0.1054 1.6277-6.2405-0.4041 0.1054-1.6277 3.3138-2.5636q0.44445-0.35242 0.66923-0.70174 0.22477-0.34931 0.25009-0.74042 0.0391-0.60392-0.34542-0.99847-0.37878-0.39418-1.0517-0.43775-0.51764-0.0335-1.1476 0.15094-0.62958 0.17871-1.3596 0.5704l0.12216-1.8865q0.76372-0.1989 1.5024-0.27814 0.73903-0.085 1.4407-0.0395 1.5414 0.0998 2.3487 0.83362 0.81305 0.73419 0.73446 1.9478-0.0454 0.7017-0.44727 1.2879-0.40146 0.58046-1.6292 1.5233l-1.939 1.4916z"/>
  <path d="m191.92 232.91q0.85423 0.27975 1.2673 0.86632 0.41916 0.58119 0.36447 1.4382-0.0815 1.2769-1.1019 1.8818-1.02 0.59907-2.8952 0.47941-0.66147-0.0422-1.3217-0.19408-0.65487-0.14575-1.2913-0.40006l0.10902-1.7083q0.60139 0.35025 1.2008 0.55021 0.60555 0.19458 1.198 0.23239 0.88005 0.0562 1.3654-0.21896 0.49112-0.27475 0.52746-0.8442 0.0374-0.5867-0.42664-0.91663-0.45796-0.33533-1.3955-0.39516l-0.8858-0.0565 0.091-1.4265 0.93182 0.0595q0.83404 0.0532 1.259-0.17955 0.42527-0.23853 0.45941-0.77346 0.0316-0.49467-0.34806-0.79034-0.37964-0.29567-1.1044-0.34192-0.53493-0.0341-1.0891 0.0518-0.55414 0.0859-1.1099 0.28724l0.10352-1.622q0.66747-0.14222 1.3176-0.19314 0.6501-0.0509 1.2713-0.0113 1.6738 0.10682 2.4669 0.71187 0.79916 0.59966 0.72868 1.704-0.0481 0.75351-0.4758 1.2114-0.42736 0.45208-1.2164 0.5981z"/>
  <path d="m198.64 234.12q-0.62126-0.0388-0.97613 0.27968-0.35486 0.31852-0.39444 0.95129-0.0396 0.63277 0.27285 0.99303 0.31278 0.3545 0.93404 0.39336 0.61551 0.0385 0.96426-0.27465 0.34912-0.31889 0.38869-0.95165 0.0399-0.63852-0.26709-0.99267-0.30667-0.3599-0.92218-0.39839zm-1.5708-0.83165q-0.76758-0.28477-1.1339-0.79855-0.36634-0.51378-0.32065-1.2443 0.068-1.0872 0.9147-1.606 0.8467-0.51876 2.4171-0.42056 1.5589 0.0975 2.3344 0.71771 0.77584 0.61446 0.70749 1.7074-0.0457 0.73056-0.47894 1.1943-0.4275 0.46413-1.2246 0.65106 0.85927 0.29628 1.268 0.87046 0.41487 0.56879 0.36307 1.3971-0.0799 1.277-0.97223 1.8796-0.88626 0.59714-2.5545 0.49282-1.674-0.10469-2.4904-0.80831-0.81035-0.70902-0.73049-1.9861 0.0518-0.82835 0.52856-1.3414 0.48286-0.51843 1.3723-0.70535zm0.62528-1.6876q-0.032 0.51197 0.23259 0.80571 0.27035 0.29411 0.79958 0.3272 0.51772 0.0324 0.81685-0.22611 0.29914-0.25849 0.33116-0.77046 0.032-0.51196-0.23295-0.79996-0.2646-0.29374-0.78232-0.32612-0.52922-0.0331-0.83411 0.22504-0.29914 0.25849-0.3308 0.7647z"/>
  <path d="m204.28 233.12 2.9656 0.17795-0.41368 6.8941q-0.0855 1.425 0.33969 2.069 0.43336 0.63673 1.4887 0.70005 1.063 0.0638 1.5617-0.51702 0.50686-0.58804 0.59237-2.0131l0.41368-6.8941 2.9656 0.17795-0.41368 6.8941q-0.14652 2.4418-1.4429 3.5623t-3.8076 0.96978q-2.5035-0.15022-3.6566-1.4177-1.1531-1.2674-1.0066-3.7093l0.41368-6.8941z"/>
 </g>
 <g fill="#2f0385">
  <path d="m133.66 273.87 3.7862 0.0629-0.0271 1.6309-6.2527-0.10388 0.0271-1.6309 3.1868-2.7198q0.42701-0.37336 0.63474-0.73307 0.20774-0.35971 0.21425-0.75159 0.0101-0.6051-0.39299-0.98072-0.39727-0.37553-1.0715-0.38673-0.51866-0.009-1.139 0.20589-0.62027 0.20875-1.3306 0.63505l0.0314-1.8902q0.75329-0.23535 1.4873-0.34998 0.73409-0.12039 1.4372-0.10871 1.5444 0.0257 2.3861 0.71985 0.84737 0.69429 0.82717 1.9102-0.0117 0.70307-0.38489 1.3079-0.37311 0.59907-1.5542 1.5998l-1.8652 1.5831z"/>
  <path d="m144.88 271.04q0.86649 0.2391 1.3068 0.80551 0.44615 0.56075 0.43199 1.4194-0.0211 1.2794-1.0118 1.9317-0.99062 0.64657-2.8693 0.61559-0.66273-0.0109-1.3294-0.13145-0.66102-0.11466-1.3087-0.33862l0.0282-1.7116q0.61726 0.32146 1.2255 0.49289 0.61406 0.16577 1.2076 0.17556 0.88172 0.0145 1.3536-0.2832 0.4776-0.29764 0.487-0.86816 0.01-0.58782-0.46944-0.89547-0.47328-0.31332-1.4126-0.32881l-0.88748-0.0146 0.0236-1.4292 0.93359 0.0154q0.83562 0.0138 1.2491-0.2388 0.41353-0.25834 0.42237-0.79429 0.008-0.49561-0.385-0.77302-0.39317-0.27742-1.1193-0.28939-0.53595-0.009-1.0854 0.10315-0.54947 0.11199-1.0951 0.33934l0.0268-1.6251q0.66001-0.17358 1.307-0.25514 0.64696-0.0816 1.2694-0.0713 1.677 0.0276 2.4977 0.59457 0.82659 0.56126 0.80835 1.6677-0.0125 0.75494-0.41808 1.2325-0.40552 0.47176-1.1867 0.65487z"/>
  <path d="m150.98 274.15 3.7862 0.062-0.0267 1.6309-6.2528-0.10243 0.0267-1.6309 3.1862-2.7205q0.42693-0.37345 0.63458-0.73321 0.20764-0.35976 0.21406-0.75164 0.01-0.6051-0.39321-0.98063-0.39736-0.37544-1.0716-0.38648-0.51866-0.009-1.139 0.20615-0.62022 0.20889-1.3305 0.63535l0.031-1.8902q0.75324-0.23553 1.4872-0.35032 0.73406-0.12056 1.4371-0.10904 1.5444 0.0253 2.3862 0.7193 0.84753 0.69409 0.82761 1.9101-0.0115 0.70307-0.38459 1.308-0.37297 0.59916-1.5538 1.6001l-1.8648 1.5835z"/>
  <path d="m155.43 270.66 10.617 0.17273-0.0365 2.2453-3.8193-0.0621-0.15089 9.2744-2.9706-0.0483 0.15089-9.2744-3.827-0.0623 0.0365-2.2453z"/>
  <path d="m176.43 277.26-0.0849 5.2622-2.7777-0.0448 0.0138-0.85645 0.0509-3.1558q0.0183-1.1342-0.0289-1.5595-0.0395-0.42512-0.15967-0.62772-0.15767-0.27266-0.43308-0.42374-0.27528-0.1588-0.6302-0.16452-0.86417-0.0139-1.3688 0.64937-0.50451 0.65559-0.52355 1.8361l-0.0686 4.2514-2.7622-0.0446 0.19363-12.006 2.7622 0.0445-0.0747 4.6295q0.63717-0.74607 1.345-1.0897 0.70799-0.35132 1.5567-0.33763 1.4969 0.0241 2.2536 0.95477 0.76449 0.93074 0.73624 2.6822z"/>
 </g>
</svg>
