<?xml version="1.0" encoding="utf-8"?>
<!-- Generator: Adobe Illustrator 18.1.0, SVG Export Plug-In . SVG Version: 6.00 Build 0)  -->
<svg version="1.1" xmlns="http://www.w3.org/2000/svg" xmlns:xlink="http://www.w3.org/1999/xlink" x="0px" y="0px"
	 viewBox="0 0 442.7 220.7" enable-background="new 0 0 442.7 220.7" xml:space="preserve">
<g id="Layer_2">
	<circle fill="#FFFFFF" stroke="#000000" stroke-miterlimit="10" cx="241.9" cy="114.8" r="5"/>
	<circle fill="#FFFFFF" stroke="#000000" stroke-miterlimit="10" cx="281.9" cy="114.8" r="5"/>
	<circle fill="#FFFFFF" stroke="#000000" stroke-miterlimit="10" cx="202.8" cy="114.8" r="5"/>
	<circle fill="#FFFFFF" stroke="#000000" stroke-miterlimit="10" cx="162.8" cy="124.8" r="5"/>
	<circle fill="#FFFFFF" stroke="#000000" stroke-miterlimit="10" cx="182.8" cy="144.8" r="5"/>
	<circle fill="#8DC63F" stroke="#000000" stroke-miterlimit="10" cx="220.8" cy="140.8" r="5"/>
	<circle fill="#FFFFFF" stroke="#000000" stroke-miterlimit="10" cx="260.9" cy="140.8" r="5"/>
	<circle fill="#8DC63F" stroke="#000000" stroke-width="1.0459" stroke-miterlimit="10" cx="263.1" cy="90.6" r="5.2"/>
	<circle fill="#FFFFFF" stroke="#000000" stroke-miterlimit="10" cx="220.8" cy="88.8" r="5"/>
	<circle fill="#FFFFFF" stroke="#000000" stroke-miterlimit="10" cx="180.8" cy="90.8" r="5"/>
	<circle fill="#FFFFFF" stroke="#000000" stroke-miterlimit="10" cx="123.9" cy="137" r="5"/>
	<circle fill="#FFFFFF" stroke="#000000" stroke-miterlimit="10" cx="86.6" cy="148.7" r="5"/>
	<circle fill="#8DC63F" stroke="#000000" stroke-miterlimit="10" cx="44.7" cy="168" r="5"/>
	<circle fill="#FFFFFF" stroke="#000000" stroke-miterlimit="10" cx="73.5" cy="180.1" r="5"/>
	<circle fill="#8DC63F" stroke="#000000" stroke-miterlimit="10" cx="111.6" cy="164.1" r="5"/>
	<circle fill="#FFFFFF" stroke="#000000" stroke-miterlimit="10" cx="149.8" cy="151.1" r="5"/>
	<circle fill="#8DC63F" stroke="#000000" stroke-miterlimit="10" cx="134.2" cy="106.4" r="5"/>
	<circle fill="#FFFFFF" stroke="#000000" stroke-miterlimit="10" cx="96" cy="118.5" r="5"/>
	<circle fill="#8DC63F" stroke="#000000" stroke-miterlimit="10" cx="58.4" cy="132.4" r="5"/>
	<circle fill="#FFFFFF" stroke="#000000" stroke-miterlimit="10" cx="44.7" cy="198.7" r="5"/>
	<circle fill="#FFFFFF" stroke="#000000" stroke-miterlimit="10" cx="8.7" cy="202.7" r="5"/>
	<circle fill="#FFFFFF" stroke="#000000" stroke-miterlimit="10" cx="427.8" cy="177" r="5"/>
	<circle fill="#8DC63F" stroke="#000000" stroke-miterlimit="10" cx="395.3" cy="153.5" r="5"/>
	<circle fill="#8DC63F" stroke="#000000" stroke-miterlimit="10" cx="394.7" cy="185.2" r="5"/>
	<circle fill="#FFFFFF" stroke="#000000" stroke-miterlimit="10" cx="427.1" cy="208.6" r="5"/>
	<circle fill="#FFFFFF" stroke="#000000" stroke-miterlimit="10" cx="10.1" cy="167.6" r="5"/>
	<circle fill="#8DC63F" stroke="#000000" stroke-miterlimit="10" cx="22.7" cy="219.3" r="5"/>
	<circle fill="#FFFFFF" stroke="#000000" stroke-miterlimit="10" cx="457.6" cy="166.5" r="5"/>
	<circle fill="#FFFFFF" stroke="#000000" stroke-miterlimit="10" cx="424" cy="144.6" r="5"/>
	<circle fill="#FFFFFF" stroke="#000000" stroke-miterlimit="10" cx="356.7" cy="140.5" r="5"/>
	<circle fill="#FFFFFF" stroke="#000000" stroke-miterlimit="10" cx="319.7" cy="128.2" r="5"/>
	<circle fill="#8DC63F" stroke="#000000" stroke-miterlimit="10" cx="290.5" cy="146" r="5"/>
	<circle fill="#FFFFFF" stroke="#000000" stroke-miterlimit="10" cx="328.5" cy="158.6" r="5"/>
	<circle fill="#FFFFFF" stroke="#000000" stroke-miterlimit="10" cx="366.5" cy="171.2" r="5"/>
	<circle fill="#FFFFFF" stroke="#000000" stroke-miterlimit="10" cx="382.9" cy="121.9" r="5"/>
	<circle fill="#8DC63F" stroke="#000000" stroke-miterlimit="10" cx="345" cy="109.2" r="5"/>
	<circle fill="#FFFFFF" stroke="#000000" stroke-miterlimit="10" cx="306.3" cy="98.5" r="5"/>
	<circle fill="#FFFFFF" stroke="#000000" stroke-miterlimit="10" cx="306.3" cy="16.5" r="5"/>
	<circle fill="#8DC63F" stroke="#000000" stroke-miterlimit="10" cx="305.9" cy="29.8" r="5"/>
</g>
<g id="Layer_1">
	<path fill="#010101" d="M91.6,36.7c-5.9,3.8-8.8,8-8.8,12.5c0.1,4.8,3.1,8.9,8.8,12.5C76,62.5,71.8,69.8,79,83.6
		c-13.8-7.2-21.1-3-21.8,12.5c-3.8-5.9-8-8.8-12.5-8.8c-4.7,0.1-8.9,3.1-12.5,8.8c-0.7-15.6-7.9-19.7-21.8-12.5
		c7.2-13.8,3-21-12.5-21.8c5.9-3.8,8.8-8,8.8-12.5c-0.1-4.7-3.1-8.9-8.8-12.5c15.6-0.7,19.7-7.9,12.5-21.7
		c13.8,7.1,21.1,3,21.8-12.5c3.7,5.7,7.8,8.6,12.5,8.7c4.6,0.1,8.8-2.8,12.5-8.7C57.9,18,65.2,22.2,79,15
		C71.8,28.8,76,36.1,91.6,36.7z M44.7,20c-5.3,0-10.2,1.3-14.7,3.9c-4.5,2.6-8.1,6.2-10.7,10.7c-2.6,4.5-3.9,9.4-3.9,14.7
		c0,5.3,1.3,10.2,3.9,14.7c2.6,4.5,6.1,8.1,10.7,10.7c4.5,2.6,9.4,3.9,14.7,3.9c5.3,0,10.2-1.3,14.7-3.9c4.5-2.6,8.1-6.1,10.7-10.7
		c2.6-4.5,3.9-9.4,3.9-14.7c0-5.3-1.3-10.2-3.9-14.7c-2.6-4.5-6.1-8-10.7-10.7C55,21.3,50,20,44.7,20z M44.7,72.7
		c-6.5,0-12-2.3-16.6-6.9c-4.6-4.6-6.9-10.1-6.9-16.6c0-6.5,2.3-12,6.9-16.6c4.6-4.6,10.1-6.9,16.6-6.9c6.5,0,12,2.3,16.6,6.9
		c4.6,4.6,6.9,10.1,6.9,16.6s-2.3,12-6.9,16.6C56.7,70.4,51.2,72.7,44.7,72.7z"/>
	<circle fill="#010101" cx="231.2" cy="465.6" r="312"/>
	<g>
		<path fill="#00AEEF" d="M186.5,167.2c-8.8,0-16,7.2-16,16c0,8.8,7.2,16,16,16c8.8,0,16-7.2,16-16
			C202.5,174.4,195.4,167.2,186.5,167.2z M186.5,196.6c-7.4,0-13.3-6-13.3-13.3c0-7.4,6-13.3,13.3-13.3c7.4,0,13.3,6,13.3,13.3
			C199.9,190.6,193.9,196.6,186.5,196.6z M191.5,174.6c-0.1-0.2-0.1-0.3-0.1-0.5c-0.9,0.5-1.8,1.1-2.6,1.7c0.4,0.1,1.5,0.2,1.3,0.8
			c-0.1,0.4-2.6,4.5-3.3,5.8c0,0-0.5,0.7-0.4,0.8c-0.5-0.5-1-1-1.5-1.5c-0.5-0.5-1.6-1.1-0.8-1.9c-0.9,0-1.9,0.2-2.7-0.1
			c0.4,0.8,0.6,1.7,0.8,2.6c0.2-0.3,0.4-0.7,0.8-0.6c0.3,0.1,0.5,0.5,0.7,0.7c0.3,0.3,0.6,0.4,0.9,0.7c0.4,0.4,0.8,0.8,1.2,1.3
			c0.3,0.3,0.6,0.4,0.9,0.4c0.1,0,0.1,0,0.2,0c0.4-0.1,0.8-0.3,1-0.7c1.1-2.1,2.8-6.1,3.3-6.8c0.4-0.6,0.9-0.4,1.5-0.1
			c-0.2-0.5-0.5-1-0.7-1.5C191.8,175.3,191.6,175,191.5,174.6z M185.2,192.6h2.7v1.3h-2.7V192.6z M185.2,171.2h2.7v1.3h-2.7V171.2z
			 M174.5,181.9h2.7v1.3h-2.7V181.9z M195.9,181.9h2.7v1.3h-2.7V181.9z"/>
	</g>
	<g>
		<circle fill="#ED1C24" cx="131.3" cy="186" r="5"/>
		<circle fill="none" stroke="#ED1C24" stroke-width="3" stroke-miterlimit="10" cx="131.3" cy="186" r="10"/>
	</g>
	<g>
		<g>
			<polyline fill="none" stroke="#F9ED32" stroke-width="6.5494" stroke-miterlimit="10" points="68,85.3 66.7,101.8 81.8,106.9 
				79.8,122.3 95.7,128.5 93.6,143.8 108.3,148.2 106,163.2 120.2,167.4 125.7,176 			"/>
			<g>
				<path fill="#F9ED32" d="M131,184.4c-4-3-9.5-6.3-14.1-7.6l8.1-1.8l5-6.6C129.4,173.1,130,179.5,131,184.4z"/>
			</g>
		</g>
	</g>
	<g>
		<path fill="none" d="M290.1,80.9"/>
	</g>
	<g>
		<g>
			<path fill="none" stroke="#ED1C24" stroke-width="3.3559" stroke-miterlimit="10" d="M240.5,168.9c0,0,3,3.4,10-9.8
				c7-13.2-6.8-19.5-1.7-34.4c4.1-12.1,10-16.8,12.4-23.5"/>
			<g>
				<path fill="#ED1C24" d="M262.3,96.3c0.3,2.5,1.1,5.7,2.3,7.9l-3.6-2.3l-4.2,0.5C258.8,100.9,260.9,98.4,262.3,96.3z"/>
			</g>
		</g>
	</g>
	<g>
		<circle fill="#ED1C24" cx="242.4" cy="170" r="5"/>
		<circle fill="none" stroke="#ED1C24" stroke-width="3" stroke-miterlimit="10" cx="242.4" cy="170" r="10"/>
	</g>
	<g>
		<circle fill="#ED1C24" cx="263" cy="90.7" r="2.2"/>
		<circle fill="none" stroke="#ED1C24" stroke-width="1.35" stroke-miterlimit="10" cx="263" cy="90.7" r="4.5"/>
	</g>
	<g>
		<g>
			<path fill="none" stroke="#ED1C24" stroke-width="0.7183" stroke-miterlimit="10" d="M266.9,92.6c0,0-0.9,0.6,0.8,2.8
				c1.7,2.2,4.1-0.7,6.3,1.1c1.7,1.4,2,3,2.9,3.8"/>
			<g>
				<path fill="#ED1C24" d="M277.8,100.9c-0.5-0.1-1.2-0.2-1.7-0.2l0.7-0.5l0.2-0.9C277.1,99.8,277.5,100.5,277.8,100.9z"/>
			</g>
		</g>
	</g>
	<g>
		<g>
			<path fill="none" stroke="#ED1C24" stroke-width="0.7183" stroke-miterlimit="10" d="M267.1,88.5c0,0-0.1,1,2.7,1.1
				c2.8,0,2-3.7,4.8-4.2c2.2-0.4,3.6,0.2,4.8,0.1"/>
			<g>
				<path fill="#ED1C24" d="M280.4,85.1c-0.4,0.3-0.9,0.8-1.2,1.3l0-0.9l-0.6-0.7C279.1,84.9,279.8,85,280.4,85.1z"/>
			</g>
		</g>
	</g>
	<g>
		<g>
			<path fill="none" stroke="#ED1C24" stroke-width="0.7183" stroke-miterlimit="10" d="M262.3,86.2c0,0,0.9,0.5,2.1-2
				c1.3-2.5-2.4-3.4-1.7-6.1c0.5-2.2,1.8-3.1,2.2-4.3"/>
			<g>
				<path fill="#ED1C24" d="M265,72.8c0.1,0.5,0.3,1.2,0.6,1.6l-0.8-0.4l-0.9,0.2C264.3,73.8,264.7,73.2,265,72.8z"/>
			</g>
		</g>
	</g>
	<g>
		<g>
			<path fill="none" stroke="#ED1C24" stroke-width="0.7183" stroke-miterlimit="10" d="M258.7,88.2c0,0,1-0.3-0.1-2.9
				c-1.1-2.6-4.1-0.3-5.8-2.6c-1.3-1.8-1.2-3.4-1.9-4.4"/>
			<g>
				<path fill="#ED1C24" d="M250.2,77.4c0.5,0.3,1.1,0.5,1.7,0.6l-0.8,0.3l-0.4,0.8C250.6,78.6,250.4,77.9,250.2,77.4z"/>
			</g>
		</g>
	</g>
	<g>
		<g>
			<path fill="none" stroke="#ED1C24" stroke-width="0.7183" stroke-miterlimit="10" d="M259,92.7c0,0,0.1-1-2.7-1.1
				c-2.8-0.1-2,3.6-4.8,4.1c-2.2,0.4-3.6-0.3-4.8-0.2"/>
			<g>
				<path fill="#ED1C24" d="M245.6,95.8c0.4-0.3,1-0.8,1.2-1.3l-0.1,0.9l0.5,0.7C246.9,96,246.2,95.8,245.6,95.8z"/>
			</g>
		</g>
	</g>
	<g>
		<g>
			<line fill="none" stroke="#ED1C24" stroke-width="3" stroke-miterlimit="10" x1="298.8" y1="43.1" x2="308.4" y2="43.1"/>
			<g>
				<path fill="#ED1C24" d="M313.8,43.1c-2.6,0.9-5.7,2.6-7.7,4.3l1.5-4.3l-1.5-4.3C308.1,40.6,311.3,42.2,313.8,43.1z"/>
			</g>
		</g>
	</g>
	<g>
		<g>
			<line fill="none" stroke="#F9ED32" stroke-width="3" stroke-miterlimit="10" x1="298.8" y1="56.5" x2="308.4" y2="56.5"/>
			<g>
				<path fill="#F9ED32" d="M313.8,56.5c-2.6,0.9-5.7,2.6-7.7,4.3l1.5-4.3l-1.5-4.3C308.1,53.9,311.3,55.5,313.8,56.5z"/>
			</g>
		</g>
	</g>
	<text transform="matrix(1 0 0 1 320 19.9985)" font-family="'MyriadPro-Regular'" font-size="12">Atmosphere</text>
	<text transform="matrix(1 0 0 1 320 33.3321)" font-family="'MyriadPro-Regular'" font-size="12">Greenhouse gas</text>
	<text transform="matrix(1 0 0 1 320 46.6651)" font-family="'MyriadPro-Regular'" font-size="12">Infrared radiation</text>
	<text transform="matrix(1 0 0 1 320 59.9985)" font-family="'MyriadPro-Regular'" font-size="12">Sunlight</text>
	<g>
		<g>
			<path fill="none" stroke="#FFFFFF" stroke-miterlimit="10" d="M146.2,180.8c20.5-12.3,40.3-20.9,75-12.9"/>
			<g>
				<path fill="#FFFFFF" d="M227,169.4c-3,0.3-6.9,1.2-9.4,2.6l2.8-4.2l-0.5-5C221.5,165.1,224.5,167.7,227,169.4z"/>
			</g>
		</g>
	</g>
</g>
</svg>
